<!DOCTYPE svg PUBLIC "-//W3C//DTD SVG 1.1//EN" "http://www.w3.org/Graphics/SVG/1.1/DTD/svg11.dtd">
<!-- Uploaded to: SVG Repo, www.svgrepo.com, Transformed by: SVG Repo Mixer Tools -->
<svg version="1.1" id="Layer_1" xmlns="http://www.w3.org/2000/svg" xmlns:xlink="http://www.w3.org/1999/xlink" viewBox="0 0 460 460" xml:space="preserve" width="64px" height="64px" fill="#000000" style="--darkreader-inline-fill: var(--darkreader-background-000000, #000000);" data-darkreader-inline-fill="">
<g id="SVGRepo_bgCarrier" stroke-width="0"/>
<g id="SVGRepo_tracerCarrier" stroke-linecap="round" stroke-linejoin="round"/>
<g id="SVGRepo_iconCarrier"> <g id="XMLID_530_"> <polygon id="XMLID_531_" style="fill: rgb(53, 74, 103); --darkreader-inline-fill: var(--darkreader-text-354a67, #a0b8ce);" points="460,403.568 60,403.568 60,0 30,0 30,403.568 0,403.568 0,433.568 30,433.568 30,460 60,460 60,433.568 460,433.568 " data-darkreader-inline-fill=""/> <rect id="XMLID_532_" x="360.01" y="52.568" transform="matrix(-0.8835 -0.4685 0.4685 -0.8835 631.6956 475.71)" style="fill: rgb(56, 151, 255); --darkreader-inline-fill: var(--darkreader-text-3897ff, #41a8ff);" width="30.001" height="213.45" data-darkreader-inline-fill=""/> <rect id="XMLID_533_" x="207.724" y="193.579" transform="matrix(-0.7433 -0.669 0.669 -0.7433 339.8557 547.5782)" style="fill: rgb(139, 192, 255); --darkreader-inline-fill: var(--darkreader-text-8bc0ff, #7bc2ff);" width="134.541" height="30.001" data-darkreader-inline-fill=""/> <rect id="XMLID_534_" x="159.985" y="150.29" transform="matrix(-0.8682 -0.4962 0.4962 -0.8682 202.327 555.8734)" style="fill: rgb(191, 220, 255); --darkreader-inline-fill: var(--darkreader-text-bfdcff, #9fd2ff);" width="30" height="201.555" data-darkreader-inline-fill=""/> <circle id="XMLID_535_" style="fill: rgb(56, 151, 255); --darkreader-inline-fill: var(--darkreader-text-3897ff, #41a8ff);" cx="225" cy="163.568" r="35" data-darkreader-inline-fill=""/> <circle id="XMLID_536_" style="fill: rgb(53, 74, 103); --darkreader-inline-fill: var(--darkreader-text-354a67, #a0b8ce);" cx="325" cy="253.568" r="35" data-darkreader-inline-fill=""/> <circle id="XMLID_782_" style="fill: rgb(53, 74, 103); --darkreader-inline-fill: var(--darkreader-text-354a67, #a0b8ce);" cx="425" cy="65" r="35" data-darkreader-inline-fill=""/> <circle id="XMLID_783_" style="fill: rgb(56, 151, 255); --darkreader-inline-fill: var(--darkreader-text-3897ff, #41a8ff);" cx="125" cy="338.568" r="35" data-darkreader-inline-fill=""/> </g> </g>
</svg>